<?xml version="1.0" encoding="utf-8"?>
<!-- Generator: Adobe Illustrator 27.2.0, SVG Export Plug-In . SVG Version: 6.00 Build 0)  -->
<svg version="1.1" id="Слой_1" xmlns="http://www.w3.org/2000/svg" xmlns:xlink="http://www.w3.org/1999/xlink" x="0px" y="0px"
	 viewBox="0 0 824.8 825" style="enable-background:new 0 0 824.8 825;" xml:space="preserve">
<style type="text/css">
	.st0{fill:#34B8AD;}
	.st1{fill:#555697;stroke:#4880A1;stroke-width:14;stroke-miterlimit:10;}
</style>
<g id="Слой_1_00000117665243580383651260000000780906508528457090_">
	<path class="st0" d="M774,824H50c-27.6,0-50-22.4-50-50V50C0,22.4,22.4,0,50,0h724c27.6,0,50,22.4,50,50v724
		C824,801.6,801.6,824,774,824z"/>
</g>
<g id="Слой_2_00000103957775766553487020000000070083708002513557_">
	<path class="st1" d="M379.6,211.1L217,492.7L165.4,463L382.6,86.4c0.8-1.1,8.6-11.9,22.7-12.1c14.7-0.2,22.9,11.1,23.6,12.1
		c72.4,125.5,144.8,251,217.3,376.5l-51.6,29.8L431.1,209.6L432,690h-52.4V211.1z"/>
</g>
</svg>
